<svg width="76" height="18" viewBox="0 0 76 18" fill="none" xmlns="http://www.w3.org/2000/svg">
<path d="M8.192 11.054H4.448L3.648 16.75H0.544L2.592 2.222H10.176L9.824 4.718H5.344L4.768 8.686H8.512L8.192 11.054ZM14.5212 0.142001C15.0119 0.142001 15.3852 0.312667 15.6412 0.654001C15.9185 0.995334 16.0145 1.43267 15.9292 1.966C15.8652 2.478 15.6519 2.90467 15.2892 3.246C14.9265 3.566 14.4999 3.726 14.0092 3.726C13.5399 3.726 13.1665 3.566 12.8892 3.246C12.6119 2.90467 12.5052 2.478 12.5692 1.966C12.6759 1.43267 12.9105 0.995334 13.2732 0.654001C13.6359 0.312667 14.0519 0.142001 14.5212 0.142001ZM13.6572 16.75H10.6812L12.2172 5.614L15.2892 5.198L13.6572 16.75ZM17.9887 5.422H20.6127L20.4847 6.862H20.5487C20.6554 6.798 20.8047 6.67 20.9967 6.478C21.21 6.286 21.4767 6.094 21.7967 5.902C22.586 5.41133 23.3647 5.166 24.1327 5.166C25.1994 5.166 25.9034 5.486 26.2447 6.126C26.586 6.766 26.6607 7.758 26.4687 9.102L25.3807 16.75H22.4687L23.3967 9.838C23.5034 9.02733 23.4927 8.48333 23.3647 8.206C23.2367 7.90733 22.9487 7.758 22.5007 7.758C22.1167 7.758 21.7647 7.87533 21.4447 8.11C20.8474 8.57933 20.5167 8.878 20.4527 9.006L19.3647 16.75H16.3887L17.9887 5.422ZM35.9952 4.718H33.0512L31.3552 16.75H28.2832L29.9472 4.718H26.9712L27.2912 2.222H36.3792L35.9952 4.718ZM39.8734 16.75H36.8974L38.4974 5.422H41.1214L41.0254 6.926H41.0574C41.3774 6.414 41.7828 5.98733 42.2734 5.646C42.7641 5.30467 43.1908 5.134 43.5534 5.134C43.9161 5.134 44.1508 5.166 44.2574 5.23C44.3854 5.27267 44.5028 5.31533 44.6094 5.358L44.0014 7.95C43.8734 7.92867 43.7028 7.886 43.4894 7.822C43.2974 7.758 43.0734 7.726 42.8174 7.726C42.5614 7.726 42.2948 7.81133 42.0174 7.982C41.7401 8.15267 41.3881 8.43 40.9614 8.814L39.8734 16.75ZM52.3236 7.566C51.9396 7.52333 51.4382 7.502 50.8196 7.502C50.2009 7.502 49.6782 7.758 49.2516 8.27C48.8462 8.782 48.5476 9.71 48.3556 11.054C48.1849 12.3767 48.1956 13.2833 48.3876 13.774C48.6009 14.2647 49.0062 14.51 49.6036 14.51C49.9662 14.51 50.3182 14.4033 50.6596 14.19C51.0222 13.9553 51.3102 13.71 51.5236 13.454L52.3236 7.566ZM51.5236 15.406C50.3076 16.494 49.1236 17.038 47.9716 17.038C46.3076 17.038 45.3582 16.0033 45.1236 13.934C45.0382 13.2087 45.0702 12.3127 45.2196 11.246C45.3689 10.158 45.6249 9.23 45.9876 8.462C46.3502 7.694 46.7769 7.06467 47.2676 6.574C48.1849 5.678 49.3262 5.23 50.6916 5.23C52.3129 5.23 53.9449 5.39 55.5876 5.71L54.0196 16.75H51.5236V15.406ZM63.9445 7.822C63.2405 7.58733 62.6432 7.47 62.1525 7.47C61.4058 7.47 60.8192 7.76867 60.3925 8.366C59.9658 8.942 59.6565 9.88067 59.4645 11.182C59.2938 12.462 59.3472 13.3687 59.6245 13.902C59.9232 14.414 60.3392 14.67 60.8725 14.67C61.4272 14.67 61.9072 14.5953 62.3125 14.446C62.7178 14.2753 62.9952 14.1687 63.1445 14.126L63.5605 15.982C62.3872 16.686 61.2672 17.038 60.2005 17.038C57.1285 17.038 55.8592 15.1073 56.3925 11.246C56.9258 7.19267 58.8138 5.166 62.0565 5.166C62.9738 5.166 63.8272 5.31533 64.6165 5.614L63.9445 7.822ZM67.1818 0.878L70.1898 0.462L68.8138 10.318L72.3658 5.422H75.7258L71.3418 10.478L74.4778 16.75H70.9578L68.6538 11.342L67.9178 16.75H64.9418L67.1818 0.878Z" fill="#437D8E"/>
</svg>
